Coordinates
version=1
nRows=28
nColumns=23
inDegrees=yes

Units are S.I. units (second, meters, Newtons, ...)
If the header above contains a line with 'inDegrees', this indicates whether rotational values are in degrees (yes) or radians (no).

endheader
time	pelvis_tilt	pelvis_list	pelvis_rotation	pelvis_tx	pelvis_ty	pelvis_tz	hip_flexion_r	hip_adduction_r	hip_rotation_r	knee_angle_r	knee_angle_r_beta	ankle_angle_r	subtalar_angle_r	mtp_angle_r	hip_flexion_l	hip_adduction_l	hip_rotation_l	knee_angle_l	knee_angle_l_beta	ankle_angle_l	subtalar_angle_l	mtp_angle_l
     22.50000000	     -2.47634214	     -0.44632322	      5.07852244	      2.10493327	      1.08228689	      1.00576787	     -8.48588901	      1.25466696	    -16.22416125	     20.13157486	      0.35136226	      4.61804723	      1.57159349	      0.00000000	     23.47439301	     -0.73558528	      6.00716598	     66.79931870	      1.16586805	      5.09121645	     -9.70053039	      0.00000000
     22.50666667	     -2.78333682	     -0.37291725	      5.17772361	      2.10619134	      1.08668609	      1.00513804	     -9.28857433	      1.10723879	    -16.93159062	     19.27589697	      0.33642787	      1.50456064	      2.04239273	      0.00000000	     23.81867279	     -0.71307907	      5.35987394	     63.95103127	      1.11615606	      5.45920297	     -9.07780800	      0.00000000
     22.51333333	     -3.07261994	     -0.35737112	      5.26178287	      2.10740808	      1.09085889	      1.00452840	     -9.99838766	      1.00554355	    -17.54733083	     18.57796187	      0.32424660	     -1.56700080	      2.40795997	      0.00000000	     24.08803598	     -0.76892390	      4.65748220	     61.00099035	      1.06466813	      5.81832952	     -8.36465700	      0.00000000
     22.52000000	     -3.38977280	     -0.35251934	      5.38404996	      2.10855523	      1.09469078	      1.00381387	    -10.55275532	      0.88106446	    -18.17141825	     18.10871597	      0.31605672	     -4.47949888	      2.70591082	      0.00000000	     24.33055643	     -0.78667121	      3.99069571	     57.95304486	      1.01147144	      6.20588778	     -7.51597559	      0.00000000
     22.52666667	     -3.94721158	     -0.40960698	      5.48297387	      2.10950545	      1.09785813	      1.00302645	    -10.65221060	      0.72088059	    -18.79265059	     18.01348691	      0.31439466	     -7.14994455	      3.02287393	      0.00000000	     24.79848739	     -0.78272225	      3.38905372	     54.84008577	      0.95714006	      6.51460139	     -6.81687691	      0.00000000
     22.53333333	     -4.02246722	     -0.40009395	      5.70303868	      2.11056688	      1.10120986	      1.00214528	    -11.27682144	      0.58297003	    -19.40931338	     17.91194916	      0.31262249	     -9.68795669	      3.00353822	      0.00000000	     24.67001409	     -0.75701457	      2.73644788	     51.61831151	      0.90090949	      7.04293454	     -5.39285621	      0.00000000
     22.54000000	     -4.46661545	     -0.41156726	      5.94232335	      2.11135236	      1.10365428	      1.00108733	    -11.29626198	      0.34221155	    -20.07482073	     18.26310851	      0.31875138	    -11.93808578	      2.84650543	      0.00000000	     24.90887081	     -0.56627906	      2.31809572	     48.34819053	      0.84383511	      7.41895230	     -4.31976139	      0.00000000
     22.54666667	     -4.76447007	     -0.33953747	      6.20603131	      2.11205876	      1.10578882	      1.00000780	    -11.37338870	     -0.00162784	    -20.74183442	     18.88353336	      0.32957983	    -13.79851346	      2.49276462	      0.00000000	     24.92045273	     -0.27928372	      1.89518078	     45.00023532	      0.78540227	      7.92796706	     -2.86688238	      0.00000000
     22.55333333	     -5.14170107	     -0.24808290	      6.53005401	      2.11266135	      1.10735243	      0.99880199	    -11.28891713	     -0.39346401	    -21.42241959	     19.70817542	      0.34397255	    -15.43636665	      1.93803954	      0.00000000	     24.96789203	      0.13902010	      1.65728262	     41.60503021	      0.72614476	      8.42720034	     -1.49064295	      0.00000000
     22.56000000	     -5.40094094	     -0.01022310	      6.79255636	      2.11300916	      1.10845980	      0.99760820	    -11.15445773	     -1.06747979	    -22.24554782	     21.03288692	      0.36709313	    -16.49366854	      1.42166935	      0.00000000	     24.83510063	      0.64942600	      1.22845322	     38.20283270	      0.66676521	      9.02038688	      0.44032981	      0.00000000
     22.56666667	     -5.69036868	      0.26462436	      7.16308152	      2.11324674	      1.10905056	      0.99626166	    -10.97857134	     -1.73353544	    -22.91470768	     22.43258507	      0.39152247	    -17.39522864	      0.29308841	      0.00000000	     24.66383658	      1.38350725	      1.26938940	     34.74792275	      0.60646566	      9.49650071	      1.86391745	      0.00000000
     22.57333333	     -5.95942661	      0.63309536	      7.53137912	      2.11340218	      1.10916831	      0.99490214	    -10.77471754	     -2.52034300	    -23.50273585	     24.03330458	      0.41946030	    -17.86069793	     -0.91420368	      0.00000000	     24.38588868	      2.23421949	      1.39082978	     31.26107133	      0.54560862	      9.98433142	      3.25751865	      0.00000000
     22.58000000	     -6.15605216	      1.10697145	      7.84150651	      2.11345605	      1.10882331	      0.99358297	    -10.58565076	     -3.47266869	    -24.03572792	     25.86777693	      0.45147788	    -17.95283326	     -2.18083603	      0.00000000	     23.95765086	      3.17776340	      1.57558762	     27.79699674	      0.48514912	     10.36624737	      4.41663887	      0.00000000
     22.58666667	     -6.32677416	      1.68341183	      8.17922398	      2.11347482	      1.10804060	      0.99223796	    -10.40401702	     -4.55592780	    -24.55299638	     27.86748167	      0.48637931	    -17.59012485	     -3.19270476	      0.00000000	     23.35526632	      4.32750886	      2.29866230	     24.23647638	      0.42300631	     10.53438031	      4.69981934	      0.00000000
     22.59333333	     -6.34827454	      2.12859330	      8.56642436	      2.11348412	      1.10689449	      0.99097883	    -10.39135114	     -5.33371052	    -24.65032245	     29.74863689	      0.51921166	    -17.24836433	     -4.92720275	      0.00000000	     22.71119834	      5.20252757	      2.72412051	     21.07601207	      0.36784580	     10.94709638	      5.65143920	      0.00000000
     22.60000000	     -6.15718808	      2.65901167	      8.84442929	      2.11349449	      1.10568189	      0.98997410	    -10.56201811	     -6.14712301	    -24.49951730	     31.69303255	      0.55314777	    -16.71300183	     -6.49148300	      0.00000000	     21.61500065	      6.19403204	      3.92462562	     17.70272139	      0.30897077	     10.81318863	      4.95292689	      0.00000000
     22.60666667	     -5.97460762	      3.09951197	      9.11701822	      2.11347991	      1.10386682	      0.98902434	    -10.65338521	     -6.83385749	    -24.16836949	     33.73133214	      0.58872281	    -16.12402737	     -8.28759119	      0.00000000	     20.76817934	      6.90750752	      4.31351646	     15.01267117	      0.26202054	     11.01793203	      5.32692324	      0.00000000
     22.61333333	     -5.61799451	      3.45355700	      9.43666630	      2.11328991	      1.10185103	      0.98813705	    -10.85578944	     -7.30358956	    -23.60515961	     35.79742591	      0.62478295	    -15.57719759	    -10.19477214	      0.00000000	     19.77550032	      7.55313103	      5.23841908	     12.63167749	      0.22046436	     11.04530979	      4.87587184	      0.00000000
     22.62000000	     -5.33429082	      3.81574116	      9.73107161	      2.11300248	      1.09918764	      0.98723175	    -10.88521157	     -7.83100195	    -23.03005942	     38.07117538	      0.66446736	    -15.01307912	    -12.01656148	      0.00000000	     19.11170467	      8.11062936	      5.40842283	     10.99908376	      0.19197023	     11.24712688	      5.10321830	      0.00000000
     22.62666667	     -5.03576137	      4.15825873	     10.01061698	      2.11255993	      1.09614506	      0.98640838	    -10.82150022	     -8.31457716	    -22.34153345	     40.48006009	      0.70651033	    -14.55045901	    -13.92331967	      0.00000000	     18.58200512	      8.62647467	      5.48300188	      9.91888205	      0.17311715	     11.36591023	      5.09044933	      0.00000000
     22.63333333	     -4.81447320	      4.44566802	     10.26381503	      2.11186566	      1.09259316	      0.98567095	    -10.53052592	     -8.71710243	    -21.46635367	     43.06231172	      0.75157912	    -14.25073858	    -15.91255582	      0.00000000	     18.33153820	      9.09462394	      5.49185231	      9.47387332	      0.16535028	     11.42918934	      4.85513199	      0.00000000
     22.64000000	     -4.35605305	      4.79482590	     10.67845515	      2.11118072	      1.08890121	      0.98473376	    -10.52014282	     -9.14434166	    -20.92307589	     45.69122594	      0.79746233	    -13.90680285	    -17.54413965	      0.00000000	     17.96835911	      9.61990963	      5.46925242	      9.64641069	      0.16836163	     11.46153707	      4.68829357	      0.00000000
     22.64666667	     -4.58858788	      5.09046606	     10.72825252	      2.10990387	      1.08392606	      0.98437788	     -9.37295424	     -9.68843485	    -19.70870817	     48.80196239	      0.85175493	    -13.93942269	    -19.65703905	      0.00000000	     18.58002533	     10.07480536	      4.96072488	     10.41133575	      0.18171209	     11.14448129	      4.27615962	      0.00000000
     22.65333333	     -4.67399311	      5.42346779	     10.90006093	      2.10863064	      1.07871670	      0.98388125	     -8.39671483	    -10.23927761	    -18.74721655	     51.92615896	      0.90628244	    -13.94981225	    -21.40063791	      0.00000000	     19.18100792	     10.57177098	      4.52995838	     11.78722943	      0.20572596	     10.79866124	      3.85642335	      0.00000000
     22.66000000	     -4.83522974	      5.74693714	     11.05225093	      2.10712926	      1.07301929	      0.98352654	     -7.22528009	    -10.79508048	    -17.75830308	     55.18183749	      0.96310475	    -14.01876108	    -22.95181295	      0.00000000	     20.00207507	     11.04825221	      4.12329739	     13.66679858	      0.23853063	     10.30020796	      3.25708879	      0.00000000
     22.66666667	     -5.05918160	      6.08263955	     11.15245562	      2.10544918	      1.06689124	      0.98330096	     -5.87847362	    -11.39175151	    -16.74904595	     58.54527525	      1.02180781	    -14.10332650	    -24.33930927	      0.00000000	     20.98534848	     11.53106608	      3.80340120	     15.95793781	      0.27851856	      9.68633841	      2.38003702	      0.00000000
     22.67333333	     -5.31838688	      6.44218769	     11.23511562	      2.10363128	      1.06043244	      0.98321369	     -4.41789239	    -12.01042078	    -15.72251642	     61.95874981	      1.08138418	    -14.22006461	    -25.50914717	      0.00000000	     22.06807170	     12.05270783	      3.70198335	     18.59503851	      0.32454465	      9.22632938	      1.20154053	      0.00000000
     22.68000000	     -5.76461365	      6.73393468	     11.27170893	      2.10158141	      1.05350852	      0.98327572	     -2.62333714	    -12.58418838	    -14.60632325	     65.44162987	      1.14217191	    -14.12234748	    -26.36596193	      0.00000000	     23.42439831	     12.52621912	      3.66097609	     21.50641566	      0.37535776	      8.77080814	     -0.18787806	      0.00000000
